<?xml version="1.0" encoding="UTF-8"?>
<!DOCTYPE svg  PUBLIC '-//W3C//DTD SVG 1.1//EN'  'http://www.w3.org/Graphics/SVG/1.1/DTD/svg11.dtd'>
<svg clip-rule="evenodd" fill-rule="evenodd" image-rendering="optimizeQuality" shape-rendering="geometricPrecision" text-rendering="geometricPrecision" version="1.1" viewBox="0 0 500 500" xmlns="http://www.w3.org/2000/svg">
<path d="m217.5 44.5c71.274-3.2159 140.94 5.7841 209 27-1.663 8.8186-4.329 17.319-8 25.5 20.339 7.724 40.006 16.891 59 27.5-13.98 3.829-27.98 7.662-42 11.5 6.454 13.731 12.287 27.564 17.5 41.5-23.217-18.696-49.05-32.863-77.5-42.5-5.584-1.647-11.251-2.813-17-3.5 0.869-5.013 1.869-10.013 3-15-0.108-0.942-0.441-1.775-1-2.5-33.958-7.329-68.291-10.995-103-11 25.03 22.014 54.03 36.347 87 43 10.569 2.296 21.236 3.796 32 4.5 2.181 48.556-4.319 95.889-19.5 142-13.838 38.875-36.005 72.042-66.5 99.5-3.057 2.723-6.39 5.056-10 7 44.187-1.503 87.353-9.003 129.5-22.5 6.554 15.837 12.054 32.17 16.5 49-0.333 0.667-0.667 1.333-1 2-117 36-234 36-351 0-1.1139-1.223-1.2805-2.556-0.5-4 5.143-15.594 9.9764-31.261 14.5-47 42.678 13.335 86.345 20.835 131 22.5-36.245-27.609-61.745-63.109-76.5-106.5-15.017-46.135-21.517-93.468-19.5-142 45.267-3.023 85.267-18.857 120-47.5-35.047-0.069-69.713 3.598-104 11-0.522 0.561-0.855 1.228-1 2 1.323 5.113 2.323 10.28 3 15.5-26.425 5.214-50.758 15.381-73 30.5-7.1667 5.167-14.333 10.333-21.5 15.5 5.3284-13.85 11.162-27.683 17.5-41.5-14.02-3.838-28.02-7.671-42-11.5 19.155-10.244 38.822-19.411 59-27.5-3.3686-8.2727-6.0352-16.773-8-25.5 47.154-14.166 95.154-23.166 144-27zm5 6c67.309-2.7122 132.98 6.1211 197 26.5-4.761 14.22-9.594 28.387-14.5 42.5-78.839-23.945-159.01-29.445-240.5-16.5-23.654 3.596-46.821 9.096-69.5 16.5-4.6269-14.214-9.4603-28.38-14.5-42.5 46.304-14.771 93.637-23.605 142-26.5zm13 20h3v3h-3v-3zm-36 1c2.883 2.4822 2.55 3.6489-1 3.5 0.837-1.0113 1.17-2.1779 1-3.5zm146 8c4.993 0.497 5.993 2.6637 3 6.5-2.612 0.7414-4.278-0.2586-5-3 0.805-1.1127 1.472-2.2794 2-3.5zm19 4c4.993 0.497 5.993 2.6637 3 6.5-1.284 0.6838-2.451 0.5171-3.5-0.5-0.678-2.0976-0.511-4.0976 0.5-6zm-241 2c2.125 0.8676 2.291 1.8676 0.5 3-3.037-0.8198-3.204-1.8198-0.5-3zm275 7c1.527-0.073 2.527 0.5937 3 2-1.527 0.073-2.527-0.5937-3-2zm-6 4c1.653 0.1596 2.986 0.8263 4 2-1.88 0.2709-3.213-0.3958-4-2zm-311 7c0.9972-0.03 1.6639 0.47 2 1.5 1.9399 7.153 4.2733 14.153 7 21 9.915 1.917 19.915 3.25 30 4-21.758 6.628-41.591 16.795-59.5 30.5 3.7102-9.951 7.5435-19.951 11.5-30-11.388-2.18-22.722-4.68-34-7.5 14.186-7.098 28.519-13.598 43-19.5zm335 0c15.445 5.387 30.445 11.887 45 19.5-11.419 2.521-22.752 5.355-34 8.5 4.414 9.423 8.081 18.757 11 28-17.993-12.997-37.66-22.83-59-29.5 10.093-0.678 20.093-2.012 30-4 3.033-7.267 5.367-14.767 7-22.5zm-167 14c32.691 26.137 70.025 41.804 112 47 0.716 50.711-8.784 99.378-28.5 146-15.275 31.939-37.109 58.439-65.5 79.5-5.785 3.308-11.618 6.475-17.5 9.5-24.306-12.636-44.639-29.97-61-52-27.684-41.376-43.684-87.043-48-137-1.299-15.309-2.132-30.643-2.5-46 41.948-4.629 78.948-20.296 111-47zm52 154c-2.357-0.163-4.69 3e-3 -7 0.5-3.5 5.5-7 11-10.5 16.5-0.5 13.996-0.667 27.996-0.5 42-10.345-2.611-20.512-1.945-30.5 2-0.667-12.667-0.667-25.333 0-38 5.717-5.314 12.55-7.98 20.5-8 1.112-1.919 2.446-3.586 4-5-2.48 3.97-4.147 8.303-5 13 0.333 1 0.667 2 1 3 1.528-1.361 3.195-2.528 5-3.5 9.958-15.415 19.792-30.915 29.5-46.5 1.333 1.333 2.667 1.333 4 0 3.183-5.704 6.35-11.371 9.5-17-1.108-2.018-1.275-4.018-0.5-6-1.466-1.825-3.299-2.325-5.5-1.5-7.985 12.823-16.318 25.323-25 37.5 0.048-2.792-1.285-4.625-4-5.5-5.523-3.762-11.523-6.428-18-8-15.333-0.667-30.667-0.667-46 0-4.529 1.514-8.695 3.681-12.5 6.5-1.072 3.053-0.072 5.053 3 6 4.349-2.341 8.682-4.674 13-7l1.5 1.5c-3.584 3.416-7.584 6.249-12 8.5-0.886 0.825-1.219 1.825-1 3-9.697-13.554-18.864-27.554-27.5-42-1.049-1.017-2.216-1.184-3.5-0.5-1.827 0.899-3.16 2.233-4 4 12.808 20.456 25.474 40.956 38 61.5-6.137-8.32-12.137-16.82-18-25.5-1.667-0.667-3.333-0.667-5 0-6.251 3.708-12.417 7.541-18.5 11.5-4.752-12.67-8.418-25.67-11-39-2.908-16.93-5.075-33.93-6.5-51 32.888-7.404 63.555-20.071 92-38 27.82 18.388 58.153 30.721 91 37-1.51 30.729-7.01 60.729-16.5 90-7.651-3.325-15.318-6.658-23-10-2.621 0.787-4.454 2.454-5.5 5 1.86 0.825 3.526 1.825 5 3zm-57-13c0.212-1.884 1.212-3.217 3-4l-1-1c-2.29 0.967-4.29 2.3-6 4 0.149-1.052-0.017-2.052-0.5-3-3.331 5.83-7.831 10.497-13.5 14 3.06-4.134 5.56-8.468 7.5-13-3.761 4.27-7.928 7.937-12.5 11 3.894-4.644 7.894-9.144 12-13.5 5.688-1.099 11.355-1.266 17-0.5-1.13 2.972-3.13 4.972-6 6zm-5 12c4.882-4.759 9.049-10.093 12.5-16 0.837-1.507 2.004-2.007 3.5-1.5-4.094 7.064-9.427 12.898-16 17.5zm26-16c-2.836 0.298-3.336-0.369-1.5-2 0.717 0.544 1.217 1.211 1.5 2zm13 13c-1.25 0.077-2.083 0.744-2.5 2-5.94-3.19-9.44-8.19-10.5-15 2.618 3.285 5.618 6.285 9 9 1.083-0.865 1.249-1.865 0.5-3-2.935-2.227-4.935-4.894-6-8 6.176 3.004 9.343 8.004 9.5 15zm-19-13c-0.945 6.563-3.945 11.896-9 16 0-1.333-0.667-2-2-2 2.935-5.265 6.601-9.932 11-14zm9 19c-1.238-0.912-2.572-1.079-4-0.5-1.205 1.376-2.538 2.542-4 3.5 0.257-4.018 1.257-7.851 3-11.5-0.832-2.478-0.999-4.978-0.5-7.5 2.141 5.256 3.974 10.589 5.5 16zm21-11c-0.61 1.934-1.61 3.601-3 5-0.297-3.059-1.63-5.559-4-7.5 2.252 0.05 3.918 1.216 5 3.5 0.683-0.363 1.35-0.696 2-1zm-75 3c4.331 4.652 7.665 9.986 10 16-3.831-4.989-7.164-10.322-10-16zm64 2c1.762 0.762 2.762 2.096 3 4-1.762-0.762-2.762-2.096-3-4zm6 3c0.073 1.527-0.594 2.527-2 3-0.333-0.667-0.667-1.333-1-2 1.109-0.057 2.109-0.39 3-1zm-2 3c0.073 1.527-0.594 2.527-2 3-0.073-1.527 0.594-2.527 2-3zm-3 5c0.073 1.527-0.594 2.527-2 3-0.073-1.527 0.594-2.527 2-3zm-55 3c1.554 1.414 2.888 3.081 4 5 6.76 0.517 12.76 2.85 18 7 1.166 12.987 1.333 25.987 0.5 39-5.264-2.235-10.764-3.568-16.5-4-4.653 0.965-9.32 1.465-14 1.5 0.99-13.754 1.323-27.588 1-41.5 2.726 4.05 6.392 7.05 11 9l1-1c-0.73-2.609-1.23-5.276-1.5-8-1.705-2.077-2.872-4.41-3.5-7zm0 9c1.965 0.448 2.298 1.448 1 3-0.886-0.825-1.219-1.825-1-3zm51 0c2.26 0.738 2.427 1.738 0.5 3-0.483-0.948-0.649-1.948-0.5-3zm-65 5c1.819 13.297 2.652 26.963 2.5 41 10.757 0.821 21.59 1.321 32.5 1.5 3 2 6 2 9 0 10.91-0.179 21.743-0.679 32.5-1.5 0.167-13.679 0.667-27.346 1.5-41 1.166 14.655 1.333 29.322 0.5 44-0.75 0.626-1.584 1.126-2.5 1.5-11 0.333-22 0.667-33 1-1.266 0.309-2.433 0.809-3.5 1.5-1.067-0.691-2.234-1.191-3.5-1.5-11.763-0.042-23.43-0.708-35-2-0.991-14.755-1.324-29.588-1-44.5zm-112 102c13.121-1.243 18.287 4.424 15.5 17-2.282 3.457-5.448 5.457-9.5 6 1.512 2.434 3.512 3.101 6 2 1.503 1.09 1.836 2.257 1 3.5-3.094 0.652-6.094 0.318-9-1-2.8475-4.51-6.3475-8.344-10.5-11.5-2.2758-7.374-0.1091-12.707 6.5-16zm303 2c1.624-0.14 2.79 0.527 3.5 2 0.963 5.025 2.463 9.858 4.5 14.5-1.947 0.991-3.947 1.325-6 1-2.833-2.167-5.667-4.333-8.5-6.5 0.333 3 0.667 6 1 9-1.356 0.88-2.856 1.214-4.5 1-1.018-5.404-2.351-10.738-4-16 1.369-1.624 3.036-2.124 5-1.5 2.926 2.978 6.26 4.978 10 6-1.153-2.616-2.153-5.282-3-8 0.916-0.278 1.582-0.778 2-1.5zm-282 6c1.617 0.538 3.284 0.871 5 1-0.407 3.703-1.074 7.37-2 11 0.91 3.767 3.076 4.767 6.5 3 1.283-3.914 2.116-7.914 2.5-12 2.761-0.585 4.427 0.415 5 3-0.833 3.333-1.667 6.667-2.5 10-2.513 3.712-6.013 4.878-10.5 3.5-2.557-0.685-4.391-2.185-5.5-4.5-0.095-5.036 0.405-10.036 1.5-15zm256 0c10.231 1.864 12.897 7.364 8 16.5-5.965 3.732-11.465 3.232-16.5-1.5-2.858-8.276-0.025-13.276 8.5-15zm-17 4c1.25 0.077 2.083 0.744 2.5 2 1.288 5.273 2.122 10.606 2.5 16h-5c-0.614-5.738-1.614-11.405-3-17 1.291 0.237 2.291-0.096 3-1zm-213 2c2.292-0.256 4.459 0.077 6.5 1 1.116 5.963 2.616 11.797 4.5 17.5-1.634 0.494-3.301 0.66-5 0.5v-4c-2.928-0.352-5.762-1.018-8.5-2-1.864 2.707-4.364 3.541-7.5 2.5 3.469-5.11 6.802-10.277 10-15.5zm201 0c2.864-0.436 5.197 0.397 7 2.5-2.131 0.543-4.131 1.376-6 2.5 0.842 4.228 1.842 8.394 3 12.5-1.718 0.346-3.385 0.846-5 1.5-1.108-4.316-2.108-8.649-3-13-1.635-1.181-3.302-1.181-5 0-0.929-1.189-1.262-2.522-1-4 3.54-0.253 6.873-0.919 10-2zm-185 2c2.064 0.187 4.064 0.687 6 1.5-1.185 4.296-2.185 8.63-3 13 3.013 0.502 6.013 1.002 9 1.5 0.157 1.373-0.01 2.707-0.5 4-4.389-1.175-8.889-1.841-13.5-2 0.76-5.989 1.427-11.989 2-18zm165 1c1.322-0.17 2.489 0.163 3.5 1 3.167 5.167 6.333 10.333 9.5 15.5-1.667 0.667-3.333 0.667-5 0-0.899-1.236-2.066-2.07-3.5-2.5-2.135 0.627-4.302 1.127-6.5 1.5-0.837 1.011-1.17 2.178-1 3.5-1.699 0.16-3.366-6e-3 -5-0.5 2.053-5.712 3.72-11.545 5-17.5 1.291 0.237 2.291-0.096 3-1zm-148 1c1.617 0.538 3.284 0.871 5 1-0.287 6.084-1.12 12.084-2.5 18-1.356-0.88-2.856-1.214-4.5-1 0.885-5.969 1.552-11.969 2-18zm55 0c5.661 0.407 11.328 0.74 17 1v3c-3.682-0.165-7.348 1e-3 -11 0.5-0.88 1.356-1.214 2.856-1 4.5h11v4h-11c-0.162 2.027 5e-3 4.027 0.5 6 3.727-0.459 7.561-0.459 11.5 0v3h-17v-22zm-47 1c7.346 0.76 14.68 1.76 22 3 0.851 2.382 2.184 4.382 4 6 1.527-1.693 2.86-3.527 4-5.5 2-0.667 4-0.667 6 0-4.822 4.599-7.489 10.099-8 16.5-2.104 0.299-4.104-0.034-6-1 1.02-1.932 1.187-3.932 0.5-6-1.833-3-3.667-6-5.5-9-2.247 0.874-4.58 1.208-7 1-0.04 4.693-0.373 9.359-1 14h-5c0.553-4.982 0.887-9.982 1-15h-5v-4zm120 0c3.393-0.438 6.393 0.395 9 2.5-0.854 1.022-1.854 1.855-3 2.5-4.57-2.092-7.57-0.759-9 4 0.348 2.197 1.348 4.03 3 5.5 3.207 0.415 6.207 0.082 9-1 1.227 1.587 0.894 2.921-1 4-5.413 2.459-10.247 1.626-14.5-2.5-3.238-7.513-1.071-12.513 6.5-15zm-17 2h5c0.166 5.011-1e-3 10.011-0.5 15-4.417 4.358-9.25 4.858-14.5 1.5-0.691-1.067-1.191-2.234-1.5-3.5-0.203-3.921-0.703-7.755-1.5-11.5 1.973-0.495 3.973-0.662 6-0.5-0.165 3.682 1e-3 7.348 0.5 11 3.189 4.014 5.689 3.514 7.5-1.5-0.882-3.441-1.216-6.941-1-10.5zm-32 1c4.912-0.437 9.578 0.396 14 2.5 4.407 6.107 3.407 11.107-3 15-4.321 0.499-8.654 0.666-13 0.5-0.634-5.645-0.968-11.311-1-17 1.291 0.237 2.291-0.096 3-1z" fill="#166534" opacity=".911"/>
<path d="m289.5 63.5c4.46-0.6153 8.46 0.3847 12 3-1.53 4.6185-4.197 5.2851-8 2-0.808 0.3076-1.475 0.8076-2 1.5 3.707 0.9358 6.874 2.7692 9.5 5.5 0.638 5.7055-2.029 8.7055-8 9-3.735-0.2121-6.901-1.5454-9.5-4 1-1.3333 2-2.6667 3-4 2.708 1.9357 5.708 2.4357 9 1.5-3.083-1.1392-6.083-2.4725-9-4-2.692-4.4719-1.692-7.9719 3-10.5z" fill="#166534" opacity=".771"/>
<path d="m196.5 64.5c2.292-0.2564 4.459 0.0769 6.5 1 3.167 5.6667 6.333 11.333 9.5 17-1.167 0.3333-2.333 0.6667-3.5 1-2.507-1.0546-5.007-2.0546-7.5-3-1.394 0.1207-2.728 0.454-4 1-1.661 3.7304-4.328 4.7304-8 3 2.342-6.695 4.676-13.362 7-20zm3 7c0.17 1.3221-0.163 2.4887-1 3.5 3.55 0.1489 3.883-1.0178 1-3.5z" fill="#166534" opacity=".817"/>
<path d="m218.5 65.5c3.558-0.0948 6.558 1.0718 9 3.5-1.113 1.3943-2.447 2.561-4 3.5-4.523-2.0993-6.357-0.766-5.5 4 2.132 1.2797 4.298 1.2797 6.5 0 1.333 1 2.667 2 4 3-8.003 6.3009-14.003 4.8009-18-4.5 1.106-4.597 3.773-7.7636 8-9.5z" fill="#166534" opacity=".774"/>
<path d="m228.5 65.5c4.014-0.1655 8.014 0.0012 12 0.5 3.792 2.0527 4.958 5.2194 3.5 9.5-0.692 0.5253-1.192 1.1919-1.5 2 4.224 4.1659 3.224 5.6659-3 4.5-2.8-4.4384-4.133-4.2717-4 0.5h-6c-0.532-5.6523-0.865-11.319-1-17zm7 5v3h3v-3h-3z" fill="#166534" opacity=".794"/>
<path d="m246.5 65.5h14v5c-2.687-0.1641-5.354 0.0026-8 0.5 2.31 0.4966 4.643 0.6633 7 0.5v5c-2.357-0.1633-4.69 0.0034-7 0.5 2.646 0.4974 5.313 0.6641 8 0.5v5h-14v-17z" fill="#166534" opacity=".769"/>
<path d="m271.5 71.5c1.348 1.1006 2.848 2.1006 4.5 3 0.896 2.525 0.396 4.6917-1.5 6.5-3.539 1.5039-7.205 1.8372-11 1-1.658-0.7253-2.158-1.892-1.5-3.5 0.71-1.4733 1.876-2.1399 3.5-2-4.311-2.3859-4.977-5.5526-2-9.5 4.423-2.0719 8.756-1.9052 13 0.5-0.512 2.8507-2.179 4.1841-5 4z" fill="#166534" opacity=".769"/>
<path d="m308.5 68.5c4.698-0.4405 8.364 1.2262 11 5-2.567 3.0401-5.234 3.3735-8 1-3.017 0.8802-3.684 2.7136-2 5.5 1.735 0.6514 3.402 0.4847 5-0.5 1.649 1.1477 3.149 2.481 4.5 4 0.923-4.2901 1.423-8.6234 1.5-13h7c0.143 1.7624-0.191 3.4291-1 5 2.74 2.8271 4.407 2.1604 5-2-0.209-0.586-0.543-1.086-1-1.5 2.297-0.0178 4.631 0.1489 7 0.5-0.535 5.7478-1.535 11.414-3 17-2.035-0.5412-4.035-1.2078-6-2 0.809-1.5709 1.143-3.2376 1-5-1.322 0.17-2.489-0.1634-3.5-1-0.495 1.9727-0.662 3.9727-0.5 6-3.255 0.4864-5.922-0.5136-8-3-10.489 3.6714-15.322 0.0047-14.5-11 1.352-2.249 3.185-3.9156 5.5-5z" fill="#166534" opacity=".772"/>
<path d="m173.5 70.5c2.104-0.2989 4.104 0.0344 6 1 1.226 4.9153 1.893 9.9153 2 15-1.43-0.0792-2.764 0.2542-4 1-2.317-1.816-4.484-3.816-6.5-6 0.207 2.2513 0.373 4.5846 0.5 7h-6c-1.101-5.273-1.767-10.606-2-16 1.43 0.0792 2.764-0.2542 4-1 2.317 1.816 4.484 3.816 6.5 6 0.018-2.2972-0.149-4.6305-0.5-7z" fill="#166534" opacity=".825"/>
<path d="m154.5 73.5h7c0.214 1.6439-0.12 3.1439-1 4.5-2.077 0.1922-4.077 0.6922-6 1.5 2.052 0.2053 4.386 0.2053 7 0v4c-2.064 0.187-4.064 0.687-6 1.5 2.657 0.1747 5.324 0.0081 8-0.5-0.079 1.4305 0.254 2.7638 1 4-4.609 1.8614-9.275 2.528-14 2-1.16-4.4578-2.16-8.9578-3-13.5 2.048-1.832 4.381-2.9987 7-3.5z" fill="#166534" opacity=".797"/>
<path d="m356.5 85.5c-2.553 5.565-6.887 7.3984-13 5.5-7.561-4.8253-7.894-10.159-1-16 8.87-1.9526 13.537 1.5474 14 10.5zm-11-6c-0.528 1.2206-1.195 2.3873-2 3.5 0.722 2.7414 2.388 3.7414 5 3 2.993-3.8363 1.993-6.003-3-6.5z" fill="#166534" opacity=".828"/>
<path d="m144.5 81.5c1.431 1.2804 2.098 2.9471 2 5-2.354 0.338-4.687 0.838-7 1.5 3.007 0.3013 6.007 0.1346 9-0.5v5c-4.617 0.9873-9.284 1.654-14 2-0.523-5.0919-1.523-10.092-3-15 3.53-1.466 7.197-2.466 11-3 3.913 0.7889 4.58 2.4556 2 5z" fill="#166534" opacity=".782"/>
<path d="m356.5 85.5c2.146-6.2772 6.48-8.4439 13-6.5 5.445 2.1102 7.278 5.9436 5.5 11.5-2.897 4.6549-7.063 6.1549-12.5 4.5-4.108-1.812-6.108-4.9787-6-9.5zm8-2c-1.011 1.9024-1.178 3.9024-0.5 6 1.049 1.0171 2.216 1.1838 3.5 0.5 2.993-3.8363 1.993-6.003-3-6.5z" fill="#166534" opacity=".822"/>
<path d="m122.5 80.5c8.016 0.1355 10.349 3.6355 7 10.5 1.185 1.353 2.519 2.5197 4 3.5-3.495 2.8682-6.662 2.5349-9.5-1 0.019 1.6075 0.185 3.2741 0.5 5-1.967-0.2394-3.801 0.0939-5.5 1-1.969-5.5446-3.469-11.211-4.5-17 2.928-0.0651 5.595-0.7318 8-2zm1 5c-2.704 1.1802-2.537 2.1802 0.5 3 1.791-1.1324 1.625-2.1324-0.5-3z" fill="#166534" opacity=".81"/>
<path d="m392.5 96.5c-3.391-7.1269-1.058-10.294 7-9.5 6.805 1.5162 7.472 4.0162 2 7.5 3.491 5.1752 2.158 8.509-4 10-3.348-0.585-6.348-1.918-9-4-0.586 0.209-1.086 0.543-1.5 1-3.944-1.861-8.111-2.861-12.5-3 1.199-5.7951 2.866-11.462 5-17 1.571 0.8094 3.238 1.1427 5 1-0.083 4.0801-1.083 7.9135-3 11.5 2.893 0.5007 5.393 1.6674 7.5 3.5 1.011-0.8366 2.178-1.17 3.5-1zm6-4c1.527-0.073 2.527 0.5937 3 2-1.527 0.073-2.527-0.5937-3-2zm-6 4c1.653 0.1596 2.986 0.8263 4 2-1.88 0.2709-3.213-0.3958-4-2z" fill="#166534" opacity=".774"/>
<path d="m101.5 82.5c3.018-0.1646 6.018 2e-3 9 0.5 0.808 0.3076 1.475 0.8076 2 1.5-0.939 1.5534-2.106 2.8867-3.5 4-6.516-1.4863-8.849 0.847-7 7 2.284 2.4845 4.784 2.6511 7.5 0.5-2.996-4.8486-1.662-6.682 4-5.5 3.439 5.0811 2.439 8.9144-3 11.5-10.826 2.838-15.992-1.329-15.5-12.5 1.6941-2.8576 3.8607-5.191 6.5-7z" fill="#166534" opacity=".801"/>
<path d="m249.5 136.5c29.844 20.012 62.51 33.512 98 40.5 1.616 51.704-10.551 100.2-36.5 145.5-15.667 25-36 45.333-61 61-33.234-21.238-57.901-49.905-74-86-17-38.657-24.833-78.824-23.5-120.5 35.317-6.814 67.65-20.314 97-40.5zm52 135c-2.357-0.163-4.69 3e-3 -7 0.5-3.5 5.5-7 11-10.5 16.5-0.5 13.996-0.667 27.996-0.5 42-10.345-2.611-20.512-1.945-30.5 2-0.667-12.667-0.667-25.333 0-38 5.717-5.314 12.55-7.98 20.5-8 1.112-1.919 2.446-3.586 4-5-2.48 3.97-4.147 8.303-5 13 0.333 1 0.667 2 1 3 1.528-1.361 3.195-2.528 5-3.5 9.958-15.415 19.792-30.915 29.5-46.5 1.333 1.333 2.667 1.333 4 0 3.183-5.704 6.35-11.371 9.5-17-1.108-2.018-1.275-4.018-0.5-6-1.466-1.825-3.299-2.325-5.5-1.5-7.985 12.823-16.318 25.323-25 37.5 0.048-2.792-1.285-4.625-4-5.5-5.523-3.762-11.523-6.428-18-8-15.333-0.667-30.667-0.667-46 0-4.529 1.514-8.695 3.681-12.5 6.5-1.072 3.053-0.072 5.053 3 6 4.349-2.341 8.682-4.674 13-7l1.5 1.5c-3.584 3.416-7.584 6.249-12 8.5-0.886 0.825-1.219 1.825-1 3-9.697-13.554-18.864-27.554-27.5-42-1.049-1.017-2.216-1.184-3.5-0.5-1.827 0.899-3.16 2.233-4 4 12.808 20.456 25.474 40.956 38 61.5-6.137-8.32-12.137-16.82-18-25.5-1.667-0.667-3.333-0.667-5 0-6.251 3.708-12.417 7.541-18.5 11.5-4.752-12.67-8.418-25.67-11-39-2.908-16.93-5.075-33.93-6.5-51 32.888-7.404 63.555-20.071 92-38 27.82 18.388 58.153 30.721 91 37-1.51 30.729-7.01 60.729-16.5 90-7.651-3.325-15.318-6.658-23-10-2.621 0.787-4.454 2.454-5.5 5 1.86 0.825 3.526 1.825 5 3zm-57-13c0.212-1.884 1.212-3.217 3-4l-1-1c-2.29 0.967-4.29 2.3-6 4 0.149-1.052-0.017-2.052-0.5-3-3.331 5.83-7.831 10.497-13.5 14 3.06-4.134 5.56-8.468 7.5-13-3.761 4.27-7.928 7.937-12.5 11 3.894-4.644 7.894-9.144 12-13.5 5.688-1.099 11.355-1.266 17-0.5-1.13 2.972-3.13 4.972-6 6zm-5 12c6.573-4.602 11.906-10.436 16-17.5-1.496-0.507-2.663-7e-3 -3.5 1.5-3.451 5.907-7.618 11.241-12.5 16zm26-16c-0.283-0.789-0.783-1.456-1.5-2-1.836 1.631-1.336 2.298 1.5 2zm13 13c-1.25 0.077-2.083 0.744-2.5 2-5.94-3.19-9.44-8.19-10.5-15 2.618 3.285 5.618 6.285 9 9 1.083-0.865 1.249-1.865 0.5-3-2.935-2.227-4.935-4.894-6-8 6.176 3.004 9.343 8.004 9.5 15zm-19-13c-0.945 6.563-3.945 11.896-9 16 0-1.333-0.667-2-2-2 2.935-5.265 6.601-9.932 11-14zm9 19c-1.238-0.912-2.572-1.079-4-0.5-1.205 1.376-2.538 2.542-4 3.5 0.257-4.018 1.257-7.851 3-11.5-0.832-2.478-0.999-4.978-0.5-7.5 2.141 5.256 3.974 10.589 5.5 16zm21-11c-0.61 1.934-1.61 3.601-3 5-0.297-3.059-1.63-5.559-4-7.5 2.252 0.05 3.918 1.216 5 3.5 0.683-0.363 1.35-0.696 2-1zm-75 3c4.331 4.652 7.665 9.986 10 16-3.831-4.989-7.164-10.322-10-16zm64 2c1.762 0.762 2.762 2.096 3 4-1.762-0.762-2.762-2.096-3-4zm6 3c0.073 1.527-0.594 2.527-2 3-0.333-0.667-0.667-1.333-1-2 1.109-0.057 2.109-0.39 3-1zm-2 3c0.073 1.527-0.594 2.527-2 3-0.073-1.527 0.594-2.527 2-3zm-3 5c0.073 1.527-0.594 2.527-2 3-0.073-1.527 0.594-2.527 2-3zm-55 3c1.554 1.414 2.888 3.081 4 5 6.76 0.517 12.76 2.85 18 7 1.166 12.987 1.333 25.987 0.5 39-5.264-2.235-10.764-3.568-16.5-4-4.653 0.965-9.32 1.465-14 1.5 0.99-13.754 1.323-27.588 1-41.5 2.726 4.05 6.392 7.05 11 9l1-1c-0.73-2.609-1.23-5.276-1.5-8-1.705-2.077-2.872-4.41-3.5-7zm0 9c-0.219 1.175 0.114 2.175 1 3 1.298-1.552 0.965-2.552-1-3zm51 0c-0.149 1.052 0.017 2.052 0.5 3 1.927-1.262 1.76-2.262-0.5-3zm-65 5c-0.324 14.912 9e-3 29.745 1 44.5 11.57 1.292 23.237 1.958 35 2 1.266 0.309 2.433 0.809 3.5 1.5 1.067-0.691 2.234-1.191 3.5-1.5 11-0.333 22-0.667 33-1 0.916-0.374 1.75-0.874 2.5-1.5 0.833-14.678 0.666-29.345-0.5-44-0.833 13.654-1.333 27.321-1.5 41-10.757 0.821-21.59 1.321-32.5 1.5-3 2-6 2-9 0-10.91-0.179-21.743-0.679-32.5-1.5 0.152-14.037-0.681-27.703-2.5-41z" fill="#166534" opacity=".904"/>
<path d="m260.5 184.5c0.997-0.03 1.664 0.47 2 1.5-1.004 1.798-1.504 3.632-1.5 5.5 1.558-0.845 2.558-0.179 3 2l3-3c0.464 0.594 0.631 1.261 0.5 2 2.657-2.994 3.323-2.661 2 1 1.455 1.72 2.288 3.72 2.5 6 0.654-1.196 1.154-1.196 1.5 0-0.574 1.559-1.24 3.059-2 4.5 0.949 0.617 1.782 0.451 2.5-0.5 0.167 0.5 0.333 1 0.5 1.5-0.991 1.677-1.991 3.343-3 5 0.808 0.308 1.475 0.808 2 1.5-2.262 0.845-2.929 2.178-2 4-2.635 4.702-6.635 7.536-12 8.5 3.477 3.482 7.477 6.148 12 8l7.5 7.5c0.49 1.293 0.657 2.627 0.5 4-2.982-0.327-5.815-0.327-8.5 0-1.399-0.727-2.899-1.227-4.5-1.5-2.562-3.065-5.562-5.565-9-7.5-0.586 0.209-1.086 0.543-1.5 1-5.759-1.991-11.592-3.824-17.5-5.5-6.701-3.889-10.534-9.723-11.5-17.5-1.916-1.428-4.083-2.428-6.5-3 1.719-2.719 4.053-4.719 7-6 3.27 1.767 6.103 4.1 8.5 7 0.333-3 0.667-6 1-9 5.154-8.94 7.987-18.607 8.5-29h3c-0.041 3.743 0.626 3.91 2 0.5 0.948-0.483 1.948-0.649 3-0.5-0.241 3.499 0.592 3.832 2.5 1 2.057 1.734 2.557 3.734 1.5 6 0.438 1.006 1.104 1.006 2 0 0.952 1.545 1.285 3.212 1 5z" fill="#166534" opacity=".914"/>
<path d="m214.5 265.5c2.836 5.678 6.169 11.011 10 16 0.628 2.59 1.795 4.923 3.5 7 0.27 2.724 0.77 5.391 1.5 8l-1 1c-4.608-1.95-8.274-4.95-11-9-12.526-20.544-25.192-41.044-38-61.5 0.84-1.767 2.173-3.101 4-4 1.284-0.684 2.451-0.517 3.5 0.5 8.636 14.446 17.803 28.446 27.5 42zm10 25c-0.219 1.175 0.114 2.175 1 3 1.298-1.552 0.965-2.552-1-3z" fill="#166534" opacity=".634"/>
<path d="m277.5 281.5c1.406-0.473 2.073-1.473 2-3 0.838-0.342 1.172-1.008 1-2 1.406-0.473 2.073-1.473 2-3 1.406-0.473 2.073-1.473 2-3 0.838-0.342 1.172-1.008 1-2 0.667 0 1-0.333 1-1 1.39-1.399 2.39-3.066 3-5 0.838-0.342 1.172-1.008 1-2 8.682-12.177 17.015-24.677 25-37.5 2.201-0.825 4.034-0.325 5.5 1.5-0.775 1.982-0.608 3.982 0.5 6-3.15 5.629-6.317 11.296-9.5 17-1.333 1.333-2.667 1.333-4 0-9.708 15.585-19.542 31.085-29.5 46.5-1.805 0.972-3.472 2.139-5 3.5-0.333-1-0.667-2-1-3 0.853-4.697 2.52-9.03 5-13zm-2 9c-0.149 1.052 0.017 2.052 0.5 3 1.927-1.262 1.76-2.262-0.5-3z" fill="#166534" opacity=".658"/>
<path d="m229.5 292.5c6.197-0.105 11.53 1.895 16 6-0.5 0.333-1 0.667-1.5 1-4.198-2.288-8.698-3.788-13.5-4.5-0.752-0.671-1.086-1.504-1-2.5z" fill="#166534" opacity=".584"/>
<path d="m266.5 292.5h5v3c-5.509 2e-3 -10.676 1.336-15.5 4-1.826-0.51-1.993-1.344-0.5-2.5 3.657-1.822 7.324-3.322 11-4.5z" fill="#166534" opacity=".566"/>
<path d="m224.5 299.5c7.056-0.569 13.723 0.764 20 4 0.886 0.825 1.219 1.825 1 3-3.175-1.411-6.509-2.578-10-3.5-4.39-0.772-8.723-0.606-13 0.5-0.886-0.825-1.219-1.825-1-3 1.291 0.237 2.291-0.096 3-1z" fill="#166534" opacity=".57"/>
<path d="m265.5 299.5c4.381-0.128 8.715 0.205 13 1 0.219 1.175-0.114 2.175-1 3-4.277-1.106-8.61-1.272-13-0.5-3.439 1.09-6.773 2.256-10 3.5-0.219-1.175 0.114-2.175 1-3 3.365-1.559 6.698-2.892 10-4z" fill="#166534" opacity=".563"/>
<path d="m223.5 306.5c4.014-0.166 8.014 1e-3 12 0.5 3.909 0.621 7.243 2.288 10 5-0.333 0.5-0.667 1-1 1.5-2.55-1.442-5.216-2.608-8-3.5-5.033-0.171-10.033-0.671-15-1.5 0.743-0.682 1.409-1.349 2-2z" fill="#166534" opacity=".567"/>
<path d="m264.5 306.5c4.014-0.166 8.014 1e-3 12 0.5 0.808 0.308 1.475 0.808 2 1.5-4.967 0.829-9.967 1.329-15 1.5-3.03 1.284-6.03 2.451-9 3.5-0.219-1.175 0.114-2.175 1-3 3.101-1.357 6.101-2.69 9-4z" fill="#166534" opacity=".559"/>
<path d="m223.5 313.5c8.017-1.062 15.35 0.604 22 5-0.308 0.808-0.808 1.475-1.5 2-2.304-1.568-4.804-2.735-7.5-3.5-5.033-0.171-10.033-0.671-15-1.5 0.743-0.682 1.409-1.349 2-2z" fill="#166534" opacity=".583"/>
<path d="m264.5 313.5c4.014-0.166 8.014 1e-3 12 0.5 0.808 0.308 1.475 0.808 2 1.5-4.967 0.829-9.967 1.329-15 1.5-2.696 0.765-5.196 1.932-7.5 3.5-1.489-0.924-1.656-1.924-0.5-3 3.101-1.357 6.101-2.69 9-4z" fill="#166534" opacity=".591"/>
<path d="m223.5 320.5c8.017-1.062 15.35 0.604 22 5-0.667 0.333-1.333 0.667-2 1-7.109-2.345-14.443-3.678-22-4 0.743-0.682 1.409-1.349 2-2z" fill="#166534" opacity=".6"/>
<path d="m264.5 320.5c4.346-0.166 8.679 1e-3 13 0.5 0.457 0.414 0.791 0.914 1 1.5-7.557 0.322-14.891 1.655-22 4-0.667-0.333-1.333-0.667-2-1 3.157-2.245 6.491-3.912 10-5z" fill="#166534" opacity=".591"/>
<path d="m45.5 326.5c15.313 10.441 31.313 19.941 48 28.5 9.55 4.684 19.55 7.851 30 9.5 0.12 2.705-0.88 3.372-3 2-12.111 1.215-24.111 3.049-36 5.5-3.0963 8.455-6.0963 16.955-9 25.5-18.291-6.646-35.958-14.646-53-24 12.847-3.962 25.847-7.462 39-10.5-5.2166-12.262-10.55-24.429-16-36.5z" fill="#166534" opacity=".932"/>
<path d="m452.5 326.5c0.876-0.131 1.543 0.202 2 1-5.434 11.809-10.768 23.642-16 35.5 13.153 3.038 26.153 6.538 39 10.5-17.264 9.632-35.264 17.632-54 24-1.965-8.727-4.631-17.227-8-25.5-11.875-2.555-23.875-4.388-36-5.5-2.12 1.372-3.12 0.705-3-2 10.45-1.649 20.45-4.816 30-9.5 16.571-7.771 31.905-17.271 46-28.5z" fill="#166534" opacity=".931"/>
<path d="m125.5 371.5h7c-0.433 2.666-0.933 5.332-1.5 8-0.674 1.078-1.674 1.745-3 2-8.601-1.354-16.768-3.687-24.5-7 7.492-0.895 14.826-1.895 22-3z" fill="#166534" opacity=".776"/>
<path d="m370.5 371.5c9.709 0.58 19.375 1.58 29 3-8.503 3.71-17.503 6.044-27 7-0.54-3.365-1.206-6.698-2-10z" fill="#166534" opacity=".778"/>
<path d="m100.5 401.5c7.879-0.284 10.712 3.383 8.5 11-8.579 5.669-12.579 3.336-12-7 1.3756-1.205 2.5423-2.538 3.5-4z" fill="#166534" opacity=".863"/>
<path d="m375.5 409.5c5.967 2.372 6.967 5.872 3 10.5-6.625 0.584-8.792-2.249-6.5-8.5 1.302-0.585 2.469-1.251 3.5-2z" fill="#166534" opacity=".806"/>
<path d="m148.5 415.5c1.032 2.52 1.532 5.186 1.5 8-1.825-0.603-3.659-1.27-5.5-2 0.861-2.411 2.194-4.411 4-6z" fill="#166534" opacity=".522"/>
<path d="m326.5 419.5c2.743 1.485 3.909 3.818 3.5 7-1.73-9e-3 -3.563-0.342-5.5-1 1.247-1.823 1.914-3.823 2-6z" fill="#166534" opacity=".53"/>
<path d="m259.5 423.5c8.493-1.029 10.827 2.137 7 9.5-1.845 1.128-3.845 1.628-6 1.5-0.224-3.679-0.558-7.346-1-11z" fill="#166534" opacity=".772"/>
</svg>
