<svg width="48" height="48" viewBox="0 0 48 48" fill="none" xmlns="http://www.w3.org/2000/svg">
<path fill-rule="evenodd" clip-rule="evenodd" d="M7.66601 8C7.0554 12.2222 6.45358 23.6252 15.4142 32.5858C24.3748 41.5464 35.7778 40.9446 40 40.334V31.6943L31.1282 30.2156L29.7888 32.8944C29.45 33.572 28.7575 34 28 34V32C28 34 27.999 34 27.998 34L27.9959 34L27.9914 34L27.9813 33.9999L27.9566 33.9996C27.9382 33.9993 27.9158 33.9988 27.8896 33.998C27.8372 33.9963 27.7694 33.9932 27.6872 33.9878C27.523 33.9768 27.3011 33.9562 27.0296 33.9174C26.487 33.8399 25.7437 33.6894 24.8675 33.3974C23.1081 32.8109 20.8301 31.6585 18.5858 29.4142C16.3414 27.1699 15.1891 24.8919 14.6026 23.1325C14.3105 22.2562 14.1601 21.5129 14.0826 20.9703C14.0438 20.6989 14.0232 20.4769 14.0122 20.3127C14.0067 20.2306 14.0037 20.1628 14.002 20.1104C14.0011 20.0842 14.0006 20.0618 14.0003 20.0433L14 20.0187L14 20.0086L14 20.0041L14 20.002C14 20.001 14 20 16 20H14C14 19.3313 14.3342 18.7068 14.8906 18.3359L19.5403 15.2361L16.6459 8H7.66601ZM18.1473 20.9722L21.7591 18.5643C23.333 17.515 23.9567 15.5068 23.2542 13.7505L20.3598 6.51444C19.7523 4.9958 18.2815 4 16.6459 4H7.56152C5.7445 4 4.03414 5.26232 3.73585 7.2338C3.05723 11.719 2.13353 24.962 12.5858 35.4142C23.038 45.8664 36.281 44.9427 40.7662 44.2641C42.7376 43.9658 44 42.2555 44 40.4384V31.6943C44 29.7389 42.5863 28.0701 40.6576 27.7487L31.7858 26.2701C30.0537 25.9814 28.3358 26.8561 27.5505 28.4268L26.8575 29.8128C26.6397 29.7593 26.3966 29.6907 26.1324 29.6026C24.8918 29.1891 23.1699 28.3415 21.4142 26.5858C19.6585 24.8301 18.8109 23.1081 18.3973 21.8675C18.2856 21.5323 18.2051 21.2309 18.1473 20.9722Z" fill="#999999"/>
</svg>
